<?xml version="1.0" encoding="UTF-8" standalone="no"?>
<svg
   xmlns:dc="http://purl.org/dc/elements/1.1/"
   xmlns:cc="http://creativecommons.org/ns#"
   xmlns:rdf="http://www.w3.org/1999/02/22-rdf-syntax-ns#"
   xmlns:svg="http://www.w3.org/2000/svg"
   xmlns="http://www.w3.org/2000/svg"
   xmlns:xlink="http://www.w3.org/1999/xlink"
   xmlns:sodipodi="http://sodipodi.sourceforge.net/DTD/sodipodi-0.dtd"
   xmlns:inkscape="http://www.inkscape.org/namespaces/inkscape"
   inkscape:export-ydpi="38.040001"
   inkscape:export-xdpi="38.040001"
   inkscape:export-filename="C:\Users\dylan\Desktop\Logo.png"
   width="500"
   height="500"
   viewBox="0 0 132.29167 132.29167"
   version="1.1"
   id="svg8"
   inkscape:version="1.0 (4035a4fb49, 2020-05-01)"
   sodipodi:docname="Logo.svg">
  <defs
     id="defs2">
    <linearGradient
       inkscape:collect="always"
       id="linearGradient3450">
      <stop
         style="stop-color:#d400dc;stop-opacity:1"
         offset="0"
         id="stop3446" />
      <stop
         style="stop-color:#0096cc;stop-opacity:1"
         offset="1"
         id="stop3448" />
    </linearGradient>
    <linearGradient
       gradientTransform="matrix(0.9991241,0,0,0.9991241,0.38222667,-0.3361747)"
       inkscape:collect="always"
       xlink:href="#linearGradient3450"
       id="linearGradient3452"
       x1="34.417923"
       y1="32.03014"
       x2="97.225761"
       y2="102.3337"
       gradientUnits="userSpaceOnUse" />
    <filter
       inkscape:collect="always"
       style="color-interpolation-filters:sRGB"
       id="filter4972"
       x="-0.108"
       width="1.216"
       y="-0.135"
       height="1.27">
      <feGaussianBlur
         inkscape:collect="always"
         stdDeviation="3.2770892"
         id="feGaussianBlur4974" />
    </filter>
    <filter
       height="1.0768"
       y="-0.0384"
       width="1.0768"
       x="-0.0384"
       id="filter5014"
       style="color-interpolation-filters:sRGB"
       inkscape:collect="always">
      <feGaussianBlur
         id="feGaussianBlur5016"
         stdDeviation="1.905"
         inkscape:collect="always" />
    </filter>
  </defs>
  <sodipodi:namedview
     id="base"
     pagecolor="#ffffff"
     bordercolor="#666666"
     borderopacity="1.0"
     inkscape:pageopacity="0.0"
     inkscape:pageshadow="2"
     inkscape:zoom="0.7"
     inkscape:cx="-30.098184"
     inkscape:cy="305.71348"
     inkscape:document-units="mm"
     inkscape:current-layer="layer1"
     inkscape:document-rotation="0"
     showgrid="false"
     units="px"
     width="49px"
     inkscape:pagecheckerboard="true"
     inkscape:snap-grids="true"
     inkscape:window-width="1920"
     inkscape:window-height="1027"
     inkscape:window-x="-8"
     inkscape:window-y="-8"
     inkscape:window-maximized="1" />
  <metadata
     id="metadata5">
    <rdf:RDF>
      <cc:Work
         rdf:about="">
        <dc:format>image/svg+xml</dc:format>
        <dc:type
           rdf:resource="http://purl.org/dc/dcmitype/StillImage" />
        <dc:title />
      </cc:Work>
    </rdf:RDF>
  </metadata>
  <g
     sodipodi:insensitive="true"
     inkscape:label="Base Circle"
     id="layer1"
     inkscape:groupmode="layer"
     style="display:inline">
    <circle
       sodipodi:insensitive="true"
       inkscape:export-ydpi="38.817287"
       inkscape:export-xdpi="38.817287"
       inkscape:transform-center-y="3.367596"
       inkscape:transform-center-x="6.4946494"
       r="59.53125"
       cy="68.065247"
       cx="66.145836"
       id="circle3352"
       style="display:inline;opacity:0.36;fill:#000000;fill-opacity:1;fill-rule:evenodd;stroke-width:0.256424;filter:url(#filter5014)"
       inkscape:label="Shadow" />
    <circle
       sodipodi:insensitive="true"
       style="display:inline;fill:#ffffff;fill-opacity:1;fill-rule:evenodd;stroke-width:0.256424"
       id="path1917"
       cx="66.145836"
       cy="66.145836"
       r="59.53125"
       inkscape:transform-center-x="6.4946494"
       inkscape:transform-center-y="3.367596"
       inkscape:label="Circle" />
  </g>
  <g
     sodipodi:insensitive="true"
     inkscape:groupmode="layer"
     id="layer2"
     inkscape:label="Base Icon"
     style="display:inline">
    <path
       inkscape:export-ydpi="38.817287"
       inkscape:export-xdpi="38.817287"
       sodipodi:insensitive="true"
       id="path3380"
       d="m 77.69033,74.069116 c 4.842813,0 14.564839,2.439612 14.564839,7.282425 v 3.641206 H 63.125493 v -3.641206 c 0,-4.842813 9.722025,-7.282425 14.564837,-7.282425 m 0,-3.641207 c 4.041737,0 7.282427,-3.240676 7.282427,-7.282425 0,-4.041737 -3.24069,-7.282412 -7.282427,-7.282412 -4.005337,0 -7.282425,3.240675 -7.282425,7.282412 0,4.041749 3.277088,7.282425 7.282425,7.282425 m 25.48848,-18.206058 v 36.412115 c 0,4.041739 -3.240686,7.282411 -7.282418,7.282411 H 37.63701 c -4.005322,0 -7.282411,-3.240672 -7.282411,-7.282411 V 44.93944 c 0,-4.04175 3.277089,-7.282426 7.282411,-7.282426 h 21.847263 l 7.282425,7.282426 h 29.129694 c 4.041732,0 7.282418,3.277091 7.282418,7.282411 m -7.282418,0 H 37.63701 v 36.412115 h 58.259382 z"
       style="display:inline;opacity:0.16;fill:#000000;fill-opacity:1;fill-rule:nonzero;stroke:none;stroke-width:3.641;stroke-miterlimit:4;stroke-dasharray:none;filter:url(#filter4972)"
       inkscape:label="Shadow" />
    <path
       sodipodi:insensitive="true"
       inkscape:label="Icon"
       style="display:inline;fill:url(#linearGradient3452);fill-opacity:1;fill-rule:nonzero;stroke:none;stroke-width:3.63782;stroke-miterlimit:4;stroke-dasharray:none"
       d="m 77.721353,72.363541 c 4.838571,0 14.552081,2.437476 14.552081,7.276047 v 3.638016 H 63.169272 v -3.638016 c 0,-4.838571 9.71351,-7.276047 14.552081,-7.276047 m 0,-3.638017 c 4.038197,0 7.276047,-3.237838 7.276047,-7.276046 0,-4.038197 -3.23785,-7.276034 -7.276047,-7.276034 -4.001829,0 -7.276047,3.237837 -7.276047,7.276034 0,4.038208 3.274218,7.276046 7.276047,7.276046 M 103.18752,50.535413 v 36.380221 c 0,4.038199 -3.23786,7.276032 -7.276052,7.276032 H 37.703116 c -4.001814,0 -7.276033,-3.237833 -7.276033,-7.276032 V 43.25938 c 0,-4.03821 3.274219,-7.276047 7.276033,-7.276047 h 21.828127 l 7.276045,7.276047 h 29.10418 c 4.038192,0 7.276052,3.274221 7.276052,7.276033 m -7.276052,0 H 37.703116 v 36.380221 h 58.208352 z"
       id="path3454" />
  </g>
</svg>
